<mxfile host="65bd71144e">
    <diagram name="Page-1" id="xXwqQttQIiMfOcxaWcmH">
        <mxGraphModel dx="436" dy="762" grid="1" gridSize="10" guides="1" tooltips="1" connect="1" arrows="1" fold="1" page="1" pageScale="1" pageWidth="850" pageHeight="1100" math="0" shadow="0">
            <root>
                <mxCell id="0"/>
                <mxCell id="1" parent="0"/>
                <mxCell id="HPYEDbmDzEQGehBArNpx-3" value="" style="edgeStyle=orthogonalEdgeStyle;rounded=0;orthogonalLoop=1;jettySize=auto;html=1;strokeWidth=3;" parent="1" source="HPYEDbmDzEQGehBArNpx-1" target="HPYEDbmDzEQGehBArNpx-2" edge="1">
                    <mxGeometry relative="1" as="geometry"/>
                </mxCell>
                <mxCell id="HPYEDbmDzEQGehBArNpx-1" value="displayTrackList()" style="strokeWidth=3;html=1;shape=mxgraph.flowchart.terminator;whiteSpace=wrap;fillColor=#d80073;fontColor=#ffffff;strokeColor=#A50040;shadow=1;" parent="1" vertex="1">
                    <mxGeometry x="367" y="40" width="116.67" height="70" as="geometry"/>
                </mxCell>
                <mxCell id="HPYEDbmDzEQGehBArNpx-9" value="" style="edgeStyle=orthogonalEdgeStyle;rounded=0;orthogonalLoop=1;jettySize=auto;html=1;strokeWidth=3;" parent="1" source="HPYEDbmDzEQGehBArNpx-2" target="HPYEDbmDzEQGehBArNpx-4" edge="1">
                    <mxGeometry relative="1" as="geometry"/>
                </mxCell>
                <mxCell id="HPYEDbmDzEQGehBArNpx-2" value="&lt;font style=&quot;color: rgb(255, 255, 255);&quot;&gt;Display:&lt;/font&gt;&lt;div&gt;&lt;font style=&quot;color: rgb(255, 255, 255);&quot;&gt;&quot;Available Tracks:&quot;&lt;/font&gt;&lt;/div&gt;" style="shape=parallelogram;perimeter=parallelogramPerimeter;whiteSpace=wrap;html=1;fixedSize=1;fillColor=#008a00;strokeColor=#005700;fontColor=#ffffff;strokeWidth=3;shadow=1;" parent="1" vertex="1">
                    <mxGeometry x="340" y="140" width="170" height="60" as="geometry"/>
                </mxCell>
                <mxCell id="HPYEDbmDzEQGehBArNpx-10" value="" style="edgeStyle=orthogonalEdgeStyle;rounded=0;orthogonalLoop=1;jettySize=auto;html=1;strokeWidth=3;" parent="1" source="HPYEDbmDzEQGehBArNpx-4" target="HPYEDbmDzEQGehBArNpx-5" edge="1">
                    <mxGeometry relative="1" as="geometry"/>
                </mxCell>
                <mxCell id="HPYEDbmDzEQGehBArNpx-4" value="&lt;font style=&quot;color: rgb(255, 255, 255);&quot;&gt;Display:&lt;/font&gt;&lt;div&gt;&lt;font style=&quot;color: rgb(255, 255, 255);&quot;&gt;&quot;1 - Section 9 Circuit&quot;&lt;/font&gt;&lt;/div&gt;" style="shape=parallelogram;perimeter=parallelogramPerimeter;whiteSpace=wrap;html=1;fixedSize=1;fillColor=#008a00;strokeColor=#005700;fontColor=#ffffff;strokeWidth=3;shadow=1;" parent="1" vertex="1">
                    <mxGeometry x="340" y="240" width="170" height="60" as="geometry"/>
                </mxCell>
                <mxCell id="HPYEDbmDzEQGehBArNpx-11" value="" style="edgeStyle=orthogonalEdgeStyle;rounded=0;orthogonalLoop=1;jettySize=auto;html=1;strokeWidth=3;" parent="1" source="HPYEDbmDzEQGehBArNpx-5" target="HPYEDbmDzEQGehBArNpx-6" edge="1">
                    <mxGeometry relative="1" as="geometry"/>
                </mxCell>
                <mxCell id="HPYEDbmDzEQGehBArNpx-5" value="&lt;font style=&quot;color: rgb(255, 255, 255);&quot;&gt;Display:&lt;/font&gt;&lt;div&gt;&lt;font style=&quot;color: rgb(255, 255, 255);&quot;&gt;&quot;2 - Chrono Pass&quot;&lt;/font&gt;&lt;/div&gt;" style="shape=parallelogram;perimeter=parallelogramPerimeter;whiteSpace=wrap;html=1;fixedSize=1;fillColor=#008a00;strokeColor=#005700;fontColor=#ffffff;strokeWidth=3;shadow=1;" parent="1" vertex="1">
                    <mxGeometry x="340" y="340" width="170" height="60" as="geometry"/>
                </mxCell>
                <mxCell id="HPYEDbmDzEQGehBArNpx-12" value="" style="edgeStyle=orthogonalEdgeStyle;rounded=0;orthogonalLoop=1;jettySize=auto;html=1;strokeWidth=3;" parent="1" source="HPYEDbmDzEQGehBArNpx-6" target="HPYEDbmDzEQGehBArNpx-7" edge="1">
                    <mxGeometry relative="1" as="geometry"/>
                </mxCell>
                <mxCell id="HPYEDbmDzEQGehBArNpx-6" value="&lt;font style=&quot;color: rgb(255, 255, 255);&quot;&gt;Display:&lt;/font&gt;&lt;div&gt;&lt;font style=&quot;color: rgb(255, 255, 255);&quot;&gt;&quot;3 - Rushline Dash&quot;&lt;/font&gt;&lt;/div&gt;" style="shape=parallelogram;perimeter=parallelogramPerimeter;whiteSpace=wrap;html=1;fixedSize=1;fillColor=#008a00;strokeColor=#005700;fontColor=#FFFFFF;strokeWidth=3;shadow=1;" parent="1" vertex="1">
                    <mxGeometry x="340" y="440" width="170" height="60" as="geometry"/>
                </mxCell>
                <mxCell id="HPYEDbmDzEQGehBArNpx-13" value="" style="edgeStyle=orthogonalEdgeStyle;rounded=0;orthogonalLoop=1;jettySize=auto;html=1;strokeWidth=3;" parent="1" source="HPYEDbmDzEQGehBArNpx-7" target="HPYEDbmDzEQGehBArNpx-8" edge="1">
                    <mxGeometry relative="1" as="geometry"/>
                </mxCell>
                <mxCell id="HPYEDbmDzEQGehBArNpx-7" value="&lt;font style=&quot;color: rgb(255, 255, 255);&quot;&gt;Display:&lt;/font&gt;&lt;div&gt;&lt;font style=&quot;color: rgb(255, 255, 255);&quot;&gt;&quot;4 - Blackrock Circuit&quot;&lt;/font&gt;&lt;/div&gt;" style="shape=parallelogram;perimeter=parallelogramPerimeter;whiteSpace=wrap;html=1;fixedSize=1;fillColor=#008a00;strokeColor=#005700;fontColor=#ffffff;strokeWidth=3;shadow=1;" parent="1" vertex="1">
                    <mxGeometry x="340" y="540" width="170" height="60" as="geometry"/>
                </mxCell>
                <mxCell id="HPYEDbmDzEQGehBArNpx-15" value="" style="edgeStyle=orthogonalEdgeStyle;rounded=0;orthogonalLoop=1;jettySize=auto;html=1;strokeWidth=3;" parent="1" source="HPYEDbmDzEQGehBArNpx-8" edge="1">
                    <mxGeometry relative="1" as="geometry">
                        <mxPoint x="425" y="740" as="targetPoint"/>
                    </mxGeometry>
                </mxCell>
                <mxCell id="HPYEDbmDzEQGehBArNpx-8" value="&lt;font style=&quot;color: rgb(255, 255, 255);&quot;&gt;Display:&lt;/font&gt;&lt;div&gt;&lt;font style=&quot;color: rgb(255, 255, 255);&quot;&gt;&quot;5 - Torque Strip&quot;&lt;/font&gt;&lt;/div&gt;" style="shape=parallelogram;perimeter=parallelogramPerimeter;whiteSpace=wrap;html=1;fixedSize=1;fillColor=#008a00;strokeColor=#005700;fontColor=#ffffff;strokeWidth=3;shadow=1;" parent="1" vertex="1">
                    <mxGeometry x="340" y="640" width="170" height="60" as="geometry"/>
                </mxCell>
                <mxCell id="2" value="End" style="strokeWidth=3;html=1;shape=mxgraph.flowchart.terminator;whiteSpace=wrap;fillColor=#d80073;fontColor=#ffffff;strokeColor=#A50040;shadow=1;" vertex="1" parent="1">
                    <mxGeometry x="367" y="740" width="116.67" height="70" as="geometry"/>
                </mxCell>
            </root>
        </mxGraphModel>
    </diagram>
</mxfile>